<svg width="24" height="24" viewBox="0 0 24 24" fill="none" xmlns="http://www.w3.org/2000/svg">
<g clip-path="url(#clip0_2_2964)">
<path d="M23.4905 12.7768L18.5686 11.3705C18.442 11.3348 18.308 11.3348 18.1814 11.3705L13.2595 12.7768C12.9587 12.8633 12.75 13.1393 12.75 13.4531V16.7717C12.75 20.1006 14.9843 23.062 18.1827 23.9732C18.2459 23.9911 18.3105 24 18.375 24C18.4395 24 18.5041 23.9911 18.5673 23.9732C21.7657 23.062 24 20.1006 24 16.7717V13.4531C24 13.1393 23.7913 12.8633 23.4905 12.7768ZM20.9815 16.7627L18.169 19.5752C18.0316 19.7126 17.8517 19.7812 17.6719 19.7812C17.492 19.7812 17.3121 19.7126 17.1748 19.5752L15.7685 18.169C15.4939 17.8943 15.4939 17.4494 15.7685 17.1747C16.0432 16.9001 16.4881 16.9001 16.7628 17.1747L17.6719 18.0839L19.9873 15.7685C20.2619 15.4938 20.7069 15.4938 20.9815 15.7685C21.2562 16.0431 21.2562 16.4881 20.9815 16.7627Z" fill="black"/>
<path d="M4.96875 5.71875C5.35708 5.71875 5.67188 5.40395 5.67188 5.01562C5.67188 4.6273 5.35708 4.3125 4.96875 4.3125C4.58042 4.3125 4.26562 4.6273 4.26562 5.01562C4.26562 5.40395 4.58042 5.71875 4.96875 5.71875Z" fill="black"/>
<path d="M21.8906 0H2.10938C0.946219 0 0 0.946219 0 2.10938V13.4531C0 14.6163 0.946219 15.5625 2.10938 15.5625H11.3438V13.4531C11.3438 12.5179 11.9714 11.6843 12.8708 11.4255L17.7955 10.0185C17.9864 9.96427 18.18 9.9375 18.375 9.9375C18.57 9.9375 18.7636 9.96427 18.9504 10.0171C20.9789 10.605 23.4247 11.2763 24 11.4836V2.10938C24 0.946219 23.0538 0 21.8906 0ZM5.01562 11.3438H3.60938C3.22073 11.3438 2.90625 11.0293 2.90625 10.6406C2.90625 10.252 3.22073 9.9375 3.60938 9.9375H5.01562C5.40427 9.9375 5.71875 10.252 5.71875 10.6406C5.71875 11.0293 5.40427 11.3438 5.01562 11.3438ZM4.96875 7.125C3.80564 7.125 2.85938 6.17873 2.85938 5.01562C2.85938 3.85252 3.80564 2.90625 4.96875 2.90625C6.13186 2.90625 7.07812 3.85252 7.07812 5.01562C7.07812 6.17873 6.13186 7.125 4.96875 7.125ZM9.23438 11.3438H7.82812C7.43948 11.3438 7.125 11.0293 7.125 10.6406C7.125 10.252 7.43948 9.9375 7.82812 9.9375H9.23438C9.62302 9.9375 9.9375 10.252 9.9375 10.6406C9.9375 11.0293 9.62302 11.3438 9.23438 11.3438ZM20.4844 5.71875H12.0469C11.6582 5.71875 11.3438 5.40427 11.3438 5.01562C11.3438 4.62698 11.6582 4.3125 12.0469 4.3125H20.4844C20.873 4.3125 21.1875 4.62698 21.1875 5.01562C21.1875 5.40427 20.873 5.71875 20.4844 5.71875Z" fill="black"/>
</g>
<defs>
<clipPath id="clip0_2_2964">
<rect width="24" height="24" fill="white"/>
</clipPath>
</defs>
</svg>
