<svg width="24" height="25" viewBox="0 0 24 25" fill="none" xmlns="http://www.w3.org/2000/svg">
<g clip-path="url(#clip0_126_2062)">
<path d="M5.5365 15.1736C8.0985 15.1736 10.1828 13.0897 10.1828 10.5277C10.1828 7.96569 8.0985 5.88144 5.5365 5.88144C2.9745 5.88144 0.890625 7.96606 0.890625 10.5281C0.890625 13.0901 2.97487 15.1743 5.53687 15.1743L5.5365 15.1736ZM5.5365 10.8089C5.16366 10.8085 4.80621 10.6603 4.54257 10.3966C4.27893 10.133 4.13065 9.77553 4.13025 9.40269C4.13069 9.07868 4.24283 8.76473 4.44776 8.51377C4.65269 8.2628 4.93787 8.09015 5.25525 8.02494V7.55356C5.25525 7.47897 5.28488 7.40743 5.33763 7.35469C5.39037 7.30195 5.46191 7.27231 5.5365 7.27231C5.61109 7.27231 5.68263 7.30195 5.73537 7.35469C5.78812 7.40743 5.81775 7.47897 5.81775 7.55356V8.02494C6.459 8.15544 6.94275 8.72356 6.94275 9.40269C6.94275 9.47728 6.91312 9.54882 6.86037 9.60156C6.80763 9.65431 6.73609 9.68394 6.6615 9.68394C6.58691 9.68394 6.51537 9.65431 6.46263 9.60156C6.40988 9.54882 6.38025 9.47728 6.38025 9.40269C6.38025 8.93769 6.0015 8.55894 5.5365 8.55894C5.0715 8.55894 4.69275 8.93769 4.69275 9.40269C4.69275 9.86769 5.0715 10.2464 5.5365 10.2464C5.90934 10.2468 6.26679 10.3951 6.53043 10.6588C6.79407 10.9224 6.94235 11.2799 6.94275 11.6527C6.94231 11.9767 6.83017 12.2906 6.62524 12.5416C6.42031 12.7926 6.13513 12.9652 5.81775 13.0304V13.5018C5.81775 13.5764 5.78812 13.6479 5.73537 13.7007C5.68263 13.7534 5.61109 13.7831 5.5365 13.7831C5.46191 13.7831 5.39037 13.7534 5.33763 13.7007C5.28488 13.6479 5.25525 13.5764 5.25525 13.5018V13.0304C4.93787 12.9652 4.65269 12.7926 4.44776 12.5416C4.24283 12.2906 4.13069 11.9767 4.13025 11.6527C4.13025 11.5781 4.15988 11.5066 4.21263 11.4538C4.26537 11.4011 4.33691 11.3714 4.4115 11.3714C4.48609 11.3714 4.55763 11.4011 4.61037 11.4538C4.66312 11.5066 4.69275 11.5781 4.69275 11.6527C4.69275 12.1177 5.0715 12.4964 5.5365 12.4964C6.0015 12.4964 6.38025 12.1177 6.38025 11.6527C6.38025 11.1877 6.0015 10.8089 5.5365 10.8089Z" fill="black"/>
<path d="M22.4437 1.58394C22.2178 1.35709 21.9491 1.17731 21.6532 1.05501C21.3573 0.932704 21.0401 0.870313 20.7199 0.871445H5.9325C5.46023 0.871941 5.00746 1.05977 4.67351 1.39371C4.33957 1.72765 4.15175 2.18043 4.15125 2.65269V5.51169C4.60195 5.38535 5.06768 5.32064 5.53575 5.31932C8.40787 5.31932 10.7445 7.65557 10.7445 10.5277C10.7445 13.3998 8.40787 15.7364 5.53575 15.7364C5.05575 15.7364 4.593 15.6656 4.15162 15.5437V18.4657H1.125C1.05041 18.4657 0.978871 18.4953 0.926126 18.5481C0.873382 18.6008 0.84375 18.6724 0.84375 18.7469V19.9023C0.84375 21.7117 2.31562 23.1836 4.125 23.1836H16.2255C17.6692 23.1791 18.843 22.0034 18.843 20.5586V5.74607H22.875C22.9496 5.74607 23.0211 5.71644 23.0739 5.66369C23.1266 5.61095 23.1562 5.53941 23.1562 5.46482V3.30894C23.1575 2.98857 23.0952 2.67114 22.9729 2.37503C22.8506 2.07892 22.6707 1.81003 22.4437 1.58394ZM4.125 22.6211C2.62612 22.6211 1.40662 21.4016 1.40662 19.9023V19.0286H13.2739C13.1779 20.2331 13.4396 21.7867 14.4724 22.6211H4.125ZM16.6837 16.8648H8.99625C8.92166 16.8648 8.85012 16.8352 8.79738 16.7824C8.74463 16.7297 8.715 16.6582 8.715 16.5836C8.715 16.509 8.74463 16.4374 8.79738 16.3847C8.85012 16.332 8.92166 16.3023 8.99625 16.3023H16.6837C16.7583 16.3023 16.8299 16.332 16.8826 16.3847C16.9354 16.4374 16.965 16.509 16.965 16.5836C16.965 16.6582 16.9354 16.7297 16.8826 16.7824C16.8299 16.8352 16.7583 16.8648 16.6837 16.8648ZM16.6837 15.0033H10.1212C10.0467 15.0033 9.97512 14.9737 9.92238 14.9209C9.86963 14.8682 9.84 14.7967 9.84 14.7221C9.84 14.6475 9.86963 14.5759 9.92238 14.5232C9.97512 14.4705 10.0467 14.4408 10.1212 14.4408H16.6837C16.7583 14.4408 16.8299 14.4705 16.8826 14.5232C16.9354 14.5759 16.965 14.6475 16.965 14.7221C16.965 14.7967 16.9354 14.8682 16.8826 14.9209C16.8299 14.9737 16.7583 15.0033 16.6837 15.0033ZM16.6837 13.1414H11.9962C11.9217 13.1414 11.8501 13.1118 11.7974 13.0591C11.7446 13.0063 11.715 12.9348 11.715 12.8602C11.715 12.7856 11.7446 12.7141 11.7974 12.6613C11.8501 12.6086 11.9217 12.5789 11.9962 12.5789H16.6837C16.7583 12.5789 16.8299 12.6086 16.8826 12.6613C16.9354 12.7141 16.965 12.7856 16.965 12.8602C16.965 12.9348 16.9354 13.0063 16.8826 13.0591C16.8299 13.1118 16.7583 13.1414 16.6837 13.1414ZM16.6837 11.2796H11.9962C11.9217 11.2796 11.8501 11.2499 11.7974 11.1972C11.7446 11.1444 11.715 11.0729 11.715 10.9983C11.715 10.9237 11.7446 10.8522 11.7974 10.7994C11.8501 10.7467 11.9217 10.7171 11.9962 10.7171H16.6837C16.7583 10.7171 16.8299 10.7467 16.8826 10.7994C16.9354 10.8522 16.965 10.9237 16.965 10.9983C16.965 11.0729 16.9354 11.1444 16.8826 11.1972C16.8299 11.2499 16.7583 11.2796 16.6837 11.2796ZM16.6837 9.41807H11.9962C11.9217 9.41807 11.8501 9.38844 11.7974 9.33569C11.7446 9.28295 11.715 9.21141 11.715 9.13682C11.715 9.06223 11.7446 8.99069 11.7974 8.93795C11.8501 8.8852 11.9217 8.85557 11.9962 8.85557H16.6837C16.7583 8.85557 16.8299 8.8852 16.8826 8.93795C16.9354 8.99069 16.965 9.06223 16.965 9.13682C16.965 9.21141 16.9354 9.28295 16.8826 9.33569C16.8299 9.38844 16.7583 9.41807 16.6837 9.41807ZM16.6837 7.55619H11.9962C11.9217 7.55619 11.8501 7.52656 11.7974 7.47382C11.7446 7.42107 11.715 7.34954 11.715 7.27494C11.715 7.20035 11.7446 7.12882 11.7974 7.07607C11.8501 7.02333 11.9217 6.99369 11.9962 6.99369H16.6837C16.7583 6.99369 16.8299 7.02333 16.8826 7.07607C16.9354 7.12882 16.965 7.20035 16.965 7.27494C16.965 7.34954 16.9354 7.42107 16.8826 7.47382C16.8299 7.52656 16.7583 7.55619 16.6837 7.55619ZM16.6837 5.69432H11.9962C11.9217 5.69432 11.8501 5.66469 11.7974 5.61194C11.7446 5.5592 11.715 5.48766 11.715 5.41307C11.715 5.33848 11.7446 5.26694 11.7974 5.2142C11.8501 5.16145 11.9217 5.13182 11.9962 5.13182H16.6837C16.7583 5.13182 16.8299 5.16145 16.8826 5.2142C16.9354 5.26694 16.965 5.33848 16.965 5.41307C16.965 5.48766 16.9354 5.5592 16.8826 5.61194C16.8299 5.66469 16.7583 5.69432 16.6837 5.69432ZM16.6837 3.83244H11.9962C11.9217 3.83244 11.8501 3.80281 11.7974 3.75007C11.7446 3.69732 11.715 3.62579 11.715 3.55119C11.715 3.4766 11.7446 3.40507 11.7974 3.35232C11.8501 3.29958 11.9217 3.26994 11.9962 3.26994H16.6837C16.7583 3.26994 16.8299 3.29958 16.8826 3.35232C16.9354 3.40507 16.965 3.4766 16.965 3.55119C16.965 3.62579 16.9354 3.69732 16.8826 3.75007C16.8299 3.80281 16.7583 3.83244 16.6837 3.83244ZM22.5934 3.30894V5.18394H18.8434V3.30894C18.8442 2.81191 19.042 2.33545 19.3934 1.984C19.7449 1.63254 20.2213 1.43474 20.7184 1.43394H20.7199C21.2216 1.43394 21.6926 1.62857 22.0459 1.98144C22.2205 2.15545 22.3588 2.36239 22.4528 2.59028C22.5468 2.81816 22.5946 3.06244 22.5934 3.30894Z" fill="black"/>
</g>
<defs>
<clipPath id="clip0_126_2062">
<rect width="24" height="24" fill="white" transform="translate(0 0.0273132)"/>
</clipPath>
</defs>
</svg>
