<svg width="24" height="25" viewBox="0 0 24 25" fill="none" xmlns="http://www.w3.org/2000/svg">
<g clip-path="url(#clip0_61_20057)">
<path d="M21.379 16.993C20.633 16.3636 20.0336 15.5789 19.6226 14.6936C19.2117 13.8083 18.9992 12.8439 19 11.868V9.07996C19 5.56096 16.386 2.64796 13 2.15996V1.07996C13 0.81474 12.8946 0.560386 12.7071 0.372849C12.5196 0.185313 12.2652 0.0799561 12 0.0799561C11.7348 0.0799561 11.4804 0.185313 11.2929 0.372849C11.1053 0.560386 11 0.81474 11 1.07996V2.15996C7.61299 2.64796 4.99999 5.56096 4.99999 9.07996V11.868C5.00037 12.8459 4.78682 13.8121 4.3743 14.6988C3.96178 15.5856 3.36029 16.3713 2.61199 17.001C2.34155 17.2341 2.14879 17.5443 2.05953 17.89C1.97028 18.2357 1.98878 18.6004 2.11256 18.9353C2.23634 19.2703 2.4595 19.5594 2.75214 19.7639C3.04478 19.9685 3.39294 20.0788 3.74999 20.08H20.25C21.215 20.08 22 19.295 22 18.33C22 17.818 21.777 17.334 21.379 16.993ZM12 24.08C12.864 24.0788 13.7012 23.7797 14.3705 23.2333C15.0397 22.6868 15.5001 21.9263 15.674 21.08H8.32599C8.4999 21.9263 8.96028 22.6868 9.62953 23.2333C10.2988 23.7797 11.136 24.0788 12 24.08Z" fill="#161616"/>
</g>
<defs>
<clipPath id="clip0_61_20057">
<rect width="24" height="24" fill="white" transform="translate(0 0.0799561)"/>
</clipPath>
</defs>
</svg>
