<svg width="20" height="25" viewBox="0 0 20 25" fill="none" xmlns="http://www.w3.org/2000/svg">
<path d="M18.1801 0.0273132H8.22216V6.7835C8.22216 7.23069 7.85963 7.59322 7.41244 7.59322H0.65625V22.8706C0.65625 23.5094 1.17417 24.0273 1.81298 24.0273H18.1801C18.819 24.0273 19.3369 23.5094 19.3369 22.8706V1.18405C19.3369 0.545235 18.819 0.0273132 18.1801 0.0273132ZM13.6209 19.235H7.02816C6.58097 19.235 6.21844 18.8724 6.21844 18.4252C6.21844 17.978 6.58097 17.6155 7.02816 17.6155H13.6209C14.0681 17.6155 14.4307 17.978 14.4307 18.4252C14.4307 18.8724 14.0681 19.235 13.6209 19.235ZM13.6209 15.4258H7.02816C6.58097 15.4258 6.21844 15.0633 6.21844 14.6161C6.21844 14.1689 6.58097 13.8064 7.02816 13.8064H13.6209C14.0681 13.8064 14.4307 14.1689 14.4307 14.6161C14.4307 15.0633 14.0681 15.4258 13.6209 15.4258ZM13.6209 11.6168H7.02816C6.58097 11.6168 6.21844 11.2543 6.21844 10.8071C6.21844 10.3599 6.58097 9.99739 7.02816 9.99739H13.6209C14.0681 9.99739 14.4307 10.3599 14.4307 10.8071C14.4307 11.2543 14.0681 11.6168 13.6209 11.6168Z" fill="black"/>
<path d="M6.59297 0.0273132C6.44107 0.027306 6.29065 0.0572285 6.15032 0.115371C6.00998 0.173514 5.88248 0.258738 5.77509 0.366173L0.995109 5.14597C0.887691 5.25337 0.802478 5.38087 0.744337 5.5212C0.686195 5.66154 0.656263 5.81195 0.65625 5.96384V5.97374H6.60281V0.0273132H6.59297Z" fill="black"/>
</svg>
