<svg width="24" height="25" viewBox="0 0 24 25" fill="none" xmlns="http://www.w3.org/2000/svg">
<path d="M7.87422 9.18601H13.1445C13.3466 9.18601 13.5111 9.02153 13.5111 8.81938V5.4281C13.5111 5.22595 13.3466 5.06147 13.1445 5.06147H7.87422C7.67207 5.06147 7.5076 5.22595 7.5076 5.4281V8.81938C7.5076 9.02153 7.67207 9.18601 7.87422 9.18601ZM12.1481 6.75711H12.3195C12.4168 6.75711 12.51 6.79574 12.5788 6.8645C12.6475 6.93325 12.6862 7.0265 12.6862 7.12374C12.6862 7.22097 12.6475 7.31423 12.5788 7.38298C12.51 7.45174 12.4168 7.49036 12.3195 7.49036H12.1481C12.0508 7.49036 11.9576 7.45174 11.8888 7.38298C11.8201 7.31423 11.7814 7.22097 11.7814 7.12374C11.7814 7.0265 11.8201 6.93325 11.8888 6.8645C11.9576 6.79574 12.0508 6.75711 12.1481 6.75711ZM8.74495 6.75711H10.6697C10.767 6.75711 10.8602 6.79574 10.929 6.8645C10.9977 6.93325 11.0364 7.0265 11.0364 7.12374C11.0364 7.22097 10.9977 7.31423 10.929 7.38298C10.8602 7.45174 10.767 7.49036 10.6697 7.49036H8.74495C8.64772 7.49036 8.55447 7.45174 8.48571 7.38298C8.41696 7.31423 8.37833 7.22097 8.37833 7.12374C8.37833 7.0265 8.41696 6.93325 8.48571 6.8645C8.55447 6.79574 8.64772 6.75711 8.74495 6.75711ZM4.20797 1.94516H2.4665C1.65658 1.94516 1 2.60174 1 3.41166V20.643C1 21.453 1.65658 22.1095 2.4665 22.1095H4.20797C4.3052 22.1095 4.39846 22.0709 4.46721 22.0022C4.53597 21.9334 4.57459 21.8401 4.57459 21.7429V2.31178C4.57459 2.21455 4.53597 2.1213 4.46721 2.05254C4.39846 1.98379 4.3052 1.94516 4.20797 1.94516ZM2.60398 4.64902H3.24558C3.34281 4.64902 3.43607 4.68765 3.50482 4.7564C3.57358 4.82516 3.6122 4.91841 3.6122 5.01564C3.6122 5.11288 3.57358 5.20613 3.50482 5.27489C3.43607 5.34364 3.34281 5.38227 3.24558 5.38227H2.60398C2.50675 5.38227 2.4135 5.34364 2.34474 5.27489C2.27599 5.20613 2.23736 5.11288 2.23736 5.01564C2.23736 4.91841 2.27599 4.82516 2.34474 4.7564C2.4135 4.68765 2.50675 4.64902 2.60398 4.64902ZM2.92478 20.1389C2.54574 20.1389 2.23736 19.8306 2.23736 19.4515C2.23736 19.0725 2.54574 18.7641 2.92478 18.7641C3.30383 18.7641 3.6122 19.0725 3.6122 19.4515C3.6122 19.8306 3.30383 20.1389 2.92478 20.1389ZM3.24558 9.96508H2.60398C2.50675 9.96508 2.4135 9.92646 2.34474 9.8577C2.27599 9.78895 2.23736 9.69569 2.23736 9.59846C2.23736 9.50122 2.27599 9.40797 2.34474 9.33921C2.4135 9.27046 2.50675 9.23183 2.60398 9.23183H3.24558C3.34281 9.23183 3.43607 9.27046 3.50482 9.33921C3.57358 9.40797 3.6122 9.50122 3.6122 9.59846C3.6122 9.69569 3.57358 9.78895 3.50482 9.8577C3.43607 9.92646 3.34281 9.96508 3.24558 9.96508ZM3.24558 7.67368H2.60398C2.50675 7.67368 2.4135 7.63505 2.34474 7.5663C2.27599 7.49754 2.23736 7.40429 2.23736 7.30705C2.23736 7.20982 2.27599 7.11656 2.34474 7.04781C2.4135 6.97905 2.50675 6.94043 2.60398 6.94043H3.24558C3.34281 6.94043 3.43607 6.97905 3.50482 7.04781C3.57358 7.11656 3.6122 7.20982 3.6122 7.30705C3.6122 7.40429 3.57358 7.49754 3.50482 7.5663C3.43607 7.63505 3.34281 7.67368 3.24558 7.67368ZM18.7591 15.2415C18.0856 15.2948 17.8158 16.2679 16.869 16.3038C16.0823 16.3346 15.6204 15.6914 15.2129 15.1246C14.9221 14.7202 14.6475 14.3381 14.3595 14.3381C13.8992 14.3381 13.3823 15.3342 13.1139 15.8138C12.6078 16.7179 12.026 17.8036 11.0361 17.8036C10.3068 17.8016 10.0728 17.2127 9.64254 17.2236C9.38302 17.2306 8.90384 17.4332 8.30917 18.5434C8.17797 18.7884 8.35349 19.0849 8.63144 19.0849H19.8812C19.9784 19.0849 20.0717 19.0463 20.1404 18.9775C20.2092 18.9088 20.2478 18.8155 20.2478 18.7183V16.3324C20.2477 16.2445 20.2161 16.1595 20.1589 16.0927C19.6539 15.5028 19.1731 15.2097 18.7591 15.2415Z" fill="black"/>
<path d="M9.62296 16.4906C10.3759 16.4724 10.6336 17.0699 11.0384 17.0704C11.6087 17.0712 12.1431 16.0472 12.4743 15.4557C12.9213 14.657 13.4743 13.6049 14.36 13.6049C15.587 13.6049 15.9884 15.6046 16.8413 15.5712C17.3996 15.5499 17.705 14.5895 18.7015 14.5106C19.0341 14.4848 19.3697 14.5648 19.7063 14.7494C19.9501 14.8832 20.248 14.7057 20.248 14.4276V12.7149C20.248 12.6176 20.2094 12.5244 20.1407 12.4556C20.0719 12.3869 19.9786 12.3482 19.8814 12.3482H7.87444C7.7772 12.3482 7.68395 12.3869 7.61519 12.4556C7.54644 12.5244 7.50781 12.6176 7.50781 12.7149V17.1798C7.50781 17.5318 7.95317 17.6794 8.16737 17.4001C8.624 16.8047 9.1063 16.5046 9.62296 16.4906Z" fill="black"/>
<path d="M21.5357 1.94516H5.67913C5.58189 1.94516 5.48864 1.98379 5.41988 2.05254C5.35113 2.1213 5.3125 2.21455 5.3125 2.31178V21.7429C5.3125 21.8401 5.35113 21.9334 5.41988 22.0022C5.48864 22.0709 5.58189 22.1095 5.67913 22.1095H21.5357C22.3456 22.1095 23.0022 21.453 23.0022 20.643V3.41166C23.0022 2.60174 22.3456 1.94516 21.5357 1.94516ZM6.779 5.4281C6.779 4.82165 7.27243 4.32822 7.87888 4.32822H13.1491C13.7556 4.32822 14.249 4.82165 14.249 5.4281V8.81938C14.249 9.42582 13.7556 9.91926 13.1491 9.91926H7.87888C7.27243 9.91926 6.779 9.42582 6.779 8.81938V5.4281ZM20.9857 18.7183C20.9857 19.3247 20.4923 19.8181 19.8858 19.8181H7.87888C7.27179 19.8181 6.779 19.3236 6.779 18.7183V12.7148C6.779 12.1083 7.27243 11.6149 7.87888 11.6149H19.8858C20.4923 11.6149 20.9857 12.1083 20.9857 12.7148V18.7183ZM20.9857 8.81938C20.9857 9.42582 20.4923 9.91926 19.8858 9.91926H17.2736C16.6672 9.91926 16.1738 9.42582 16.1738 8.81938V5.4281C16.1738 4.82165 16.6672 4.32822 17.2736 4.32822H19.8858C20.4923 4.32822 20.9857 4.82165 20.9857 5.4281V8.81938Z" fill="black"/>
<path d="M19.8773 5.06161H17.2651C17.0629 5.06161 16.8984 5.22609 16.8984 5.42824V8.81952C16.8984 9.02167 17.0629 9.18615 17.2651 9.18615H19.8773C20.0794 9.18615 20.2439 9.02167 20.2439 8.81952V5.42824C20.2439 5.22609 20.0794 5.06161 19.8773 5.06161Z" fill="black"/>
</svg>
