<svg width="24" height="25" viewBox="0 0 24 25" fill="none" xmlns="http://www.w3.org/2000/svg">
<g clip-path="url(#clip0_126_2476)">
<path d="M14.1176 23.2773C14.1176 23.4763 14.0433 23.667 13.9109 23.8077C13.7785 23.9483 13.599 24.0273 13.4118 24.0273C13.2246 24.0273 13.045 23.9483 12.9126 23.8077C12.7803 23.667 12.7059 23.4763 12.7059 23.2773V21.7766C12.7059 18.4635 10.1774 15.7773 7.05882 15.7773C3.93953 15.7773 1.41176 18.4631 1.41176 21.7766V23.2773C1.41176 23.4763 1.3374 23.667 1.20502 23.8077C1.07264 23.9483 0.893094 24.0273 0.705882 24.0273C0.518671 24.0273 0.339127 23.9483 0.206748 23.8077C0.0743695 23.667 0 23.4763 0 23.2773V21.7766C0 17.6347 3.15988 14.2773 7.05882 14.2773C10.9571 14.2773 14.1176 17.6351 14.1176 21.7766V23.2773ZM13.0542 13.6743C12.987 13.7422 12.9078 13.7952 12.8213 13.8305C12.7347 13.8658 12.6425 13.8827 12.5498 13.8801C12.4571 13.8775 12.3658 13.8556 12.2811 13.8155C12.1964 13.7754 12.1199 13.7181 12.0561 13.6466C11.9923 13.5751 11.9423 13.491 11.9091 13.3991C11.8759 13.3071 11.86 13.2091 11.8625 13.1106C11.8649 13.0121 11.8855 12.9151 11.9233 12.8251C11.961 12.7351 12.015 12.6539 12.0822 12.5861C13.3927 11.2619 15.1327 10.5247 16.9412 10.5273C20.8394 10.5273 24 13.8847 24 18.0258V19.5273C24 19.7263 23.9256 19.917 23.7933 20.0577C23.6609 20.1983 23.4813 20.2773 23.2941 20.2773C23.1069 20.2773 22.9274 20.1983 22.795 20.0577C22.6626 19.917 22.5882 19.7263 22.5882 19.5273V18.0258C22.5882 14.7135 20.0598 12.0273 16.9412 12.0273C15.474 12.0273 14.0965 12.6228 13.0542 13.6743ZM7.05882 12.0273C4.91471 12.0273 3.17647 10.1805 3.17647 7.90234C3.17647 5.62422 4.91471 3.77734 7.05882 3.77734C9.20294 3.77734 10.9412 5.62422 10.9412 7.90234C10.9412 10.1805 9.20294 12.0273 7.05882 12.0273ZM7.05882 10.5273C7.71406 10.5273 8.34247 10.2508 8.80579 9.7585C9.26912 9.26622 9.52941 8.59854 9.52941 7.90234C9.52941 7.20615 9.26912 6.53847 8.80579 6.04619C8.34247 5.55391 7.71406 5.27734 7.05882 5.27734C6.40358 5.27734 5.77518 5.55391 5.31185 6.04619C4.84853 6.53847 4.58824 7.20615 4.58824 7.90234C4.58824 8.59854 4.84853 9.26622 5.31185 9.7585C5.77518 10.2508 6.40358 10.5273 7.05882 10.5273ZM16.9412 8.27734C14.7971 8.27734 13.0588 6.43047 13.0588 4.15234C13.0588 1.87422 14.7971 0.0273438 16.9412 0.0273438C19.0853 0.0273438 20.8235 1.87422 20.8235 4.15234C20.8235 6.43047 19.0853 8.27734 16.9412 8.27734ZM16.9412 6.77734C17.2656 6.77734 17.5869 6.70945 17.8866 6.57753C18.1864 6.44561 18.4587 6.25225 18.6881 6.0085C18.9176 5.76475 19.0995 5.47537 19.2237 5.15689C19.3479 4.83841 19.4118 4.49706 19.4118 4.15234C19.4118 3.80762 19.3479 3.46628 19.2237 3.1478C19.0995 2.82932 18.9176 2.53994 18.6881 2.29619C18.4587 2.05243 18.1864 1.85908 17.8866 1.72716C17.5869 1.59524 17.2656 1.52734 16.9412 1.52734C16.2859 1.52734 15.6575 1.80391 15.1942 2.29619C14.7309 2.78847 14.4706 3.45615 14.4706 4.15234C14.4706 4.84854 14.7309 5.51622 15.1942 6.0085C15.6575 6.50078 16.2859 6.77734 16.9412 6.77734Z" fill="#BCBBB9"/>
</g>
<defs>
<clipPath id="clip0_126_2476">
<rect width="24" height="24" fill="white" transform="translate(0 0.0273438)"/>
</clipPath>
</defs>
</svg>
